<?xml version="1.0" standalone="no"?><!DOCTYPE svg PUBLIC "-//W3C//DTD SVG 1.1//EN" "http://www.w3.org/Graphics/SVG/1.1/DTD/svg11.dtd"><svg t="1645165721027" class="icon" viewBox="0 0 1024 1024" version="1.1" xmlns="http://www.w3.org/2000/svg" p-id="11426" xmlns:xlink="http://www.w3.org/1999/xlink" width="200" height="200"><defs><style type="text/css"></style></defs><path d="M860.16 40.96H163.84a122.88 122.88 0 0 0-122.88 122.88v696.32a122.88 122.88 0 0 0 122.88 122.88h696.32a122.88 122.88 0 0 0 122.88-122.88V163.84a122.88 122.88 0 0 0-122.88-122.88zM163.84 92.16h696.32A71.68 71.68 0 0 1 931.84 163.84v547.4304l-204.8-204.8a25.6 25.6 0 0 0-36.2496 0l-154.624 154.624-222.4128-222.0032a25.6 25.6 0 0 0-36.2496 0L92.16 624.64V163.84A71.68 71.68 0 0 1 163.84 92.16z m696.32 839.68H163.84A71.68 71.68 0 0 1 92.16 860.16v-163.84l203.5712-203.5712L518.144 715.3664a25.6 25.6 0 0 0 36.2496 0l154.624-154.624L931.84 783.7696V860.16a71.68 71.68 0 0 1-71.68 71.68z" p-id="11427" fill="#d81e06"></path><path d="M720.6912 412.2624a124.1088 124.1088 0 1 0-124.1088-124.1088 124.3136 124.3136 0 0 0 124.1088 124.1088z m0-197.0176a72.9088 72.9088 0 1 1-72.9088 72.9088 73.1136 73.1136 0 0 1 72.9088-73.1136z" p-id="11428" fill="#d81e06"></path></svg>